<?xml version="1.0" encoding="UTF-8" standalone="no"?>
<!DOCTYPE svg PUBLIC "-//W3C//DTD SVG 1.1//EN"
 "http://www.w3.org/Graphics/SVG/1.1/DTD/svg11.dtd">
<!-- Generated by graphviz version 2.43.0 (0)
 -->
<!-- Title: ground_segmentation::PointCloudGrid&lt; PointT &gt; Pages: 1 -->
<svg width="731pt" height="216pt"
 viewBox="0.00 0.00 731.00 216.00" xmlns="http://www.w3.org/2000/svg" xmlns:xlink="http://www.w3.org/1999/xlink">
<g id="graph0" class="graph" transform="scale(1 1) rotate(0) translate(4 212)">
<title>ground_segmentation::PointCloudGrid&lt; PointT &gt;</title>
<!-- Node1 -->
<g id="Node000001" class="node">
<title>Node1</title>
<g id="a_Node000001"><a xlink:title="Core grid&#45;based ground segmentation algorithm.">
<polygon fill="#999999" stroke="#666666" points="723,-102 574,-102 574,-72 723,-72 723,-102"/>
<text text-anchor="start" x="582" y="-90" font-family="Helvetica,sans-Serif" font-size="10.00">ground_segmentation</text>
<text text-anchor="middle" x="648.5" y="-79" font-family="Helvetica,sans-Serif" font-size="10.00">::PointCloudGrid&lt; PointT &gt;</text>
</a>
</g>
</g>
<!-- Node2 -->
<g id="Node000002" class="node">
<title>Node2</title>
<g id="a_Node000002"><a xlink:title=" ">
<polygon fill="white" stroke="#666666" points="391,-138 244,-138 244,-108 391,-108 391,-138"/>
<text text-anchor="start" x="252" y="-126" font-family="Helvetica,sans-Serif" font-size="10.00">std::vector&lt; ground</text>
<text text-anchor="middle" x="317.5" y="-115" font-family="Helvetica,sans-Serif" font-size="10.00">_segmentation::Index3D &gt;</text>
</a>
</g>
</g>
<!-- Node2&#45;&gt;Node1 -->
<g id="edge1_Node000001_Node000002" class="edge">
<title>Node2&#45;&gt;Node1</title>
<g id="a_edge1_Node000001_Node000002"><a xlink:title=" ">
<path fill="none" stroke="#9a32cd" stroke-dasharray="5,2" d="M401.18,-113.95C454.31,-108.14 522.7,-100.66 573.94,-95.05"/>
<polygon fill="#9a32cd" stroke="#9a32cd" points="400.67,-110.49 391.11,-115.06 401.43,-117.45 400.67,-110.49"/>
</a>
</g>
<text text-anchor="middle" x="500.5" y="-145" font-family="Helvetica,sans-Serif" font-size="10.00" fill="grey"> centroid_indices</text>
<text text-anchor="middle" x="500.5" y="-134" font-family="Helvetica,sans-Serif" font-size="10.00" fill="grey">ground_cells</text>
<text text-anchor="middle" x="500.5" y="-123" font-family="Helvetica,sans-Serif" font-size="10.00" fill="grey">neighbor_offsets</text>
<text text-anchor="middle" x="500.5" y="-112" font-family="Helvetica,sans-Serif" font-size="10.00" fill="grey">non_ground_cells</text>
</g>
<!-- Node3 -->
<g id="Node000003" class="node">
<title>Node3</title>
<g id="a_Node000003"><a xlink:href="structground__segmentation_1_1Index3D.html" target="_top" xlink:title="Integer 3D grid index used as key in hash map.">
<polygon fill="white" stroke="#666666" points="123,-144 0,-144 0,-114 123,-114 123,-144"/>
<text text-anchor="start" x="8" y="-132" font-family="Helvetica,sans-Serif" font-size="10.00">ground_segmentation</text>
<text text-anchor="middle" x="61.5" y="-121" font-family="Helvetica,sans-Serif" font-size="10.00">::Index3D</text>
</a>
</g>
</g>
<!-- Node3&#45;&gt;Node2 -->
<g id="edge2_Node000002_Node000003" class="edge">
<title>Node3&#45;&gt;Node2</title>
<g id="a_edge2_Node000002_Node000003"><a xlink:title=" ">
<path fill="none" stroke="#9a32cd" stroke-dasharray="5,2" d="M133.02,-127.33C167.51,-126.52 209,-125.54 243.79,-124.72"/>
<polygon fill="#9a32cd" stroke="#9a32cd" points="132.93,-123.84 123.02,-127.57 133.1,-130.83 132.93,-123.84"/>
</a>
</g>
<text text-anchor="middle" x="165.5" y="-131" font-family="Helvetica,sans-Serif" font-size="10.00" fill="grey"> elements</text>
</g>
<!-- Node4 -->
<g id="Node000004" class="node">
<title>Node4</title>
<g id="a_Node000004"><a xlink:title=" ">
<polygon fill="white" stroke="#666666" points="389,-89.5 246,-89.5 246,-48.5 389,-48.5 389,-89.5"/>
<text text-anchor="start" x="254" y="-77.5" font-family="Helvetica,sans-Serif" font-size="10.00">std::unordered_map</text>
<text text-anchor="start" x="254" y="-66.5" font-family="Helvetica,sans-Serif" font-size="10.00">&lt; Index3D, CellType,</text>
<text text-anchor="middle" x="317.5" y="-55.5" font-family="Helvetica,sans-Serif" font-size="10.00"> Index3D::HashFunction &gt;</text>
</a>
</g>
</g>
<!-- Node3&#45;&gt;Node4 -->
<g id="edge4_Node000004_Node000003" class="edge">
<title>Node3&#45;&gt;Node4</title>
<g id="a_edge4_Node000004_Node000003"><a xlink:title=" ">
<path fill="none" stroke="#9a32cd" stroke-dasharray="5,2" d="M133.18,-112.3C168.26,-104.02 210.53,-94.03 245.64,-85.74"/>
<polygon fill="#9a32cd" stroke="#9a32cd" points="131.94,-109 123.02,-114.7 133.55,-115.81 131.94,-109"/>
</a>
</g>
<text text-anchor="middle" x="165.5" y="-113" font-family="Helvetica,sans-Serif" font-size="10.00" fill="grey"> keys</text>
</g>
<!-- Node7 -->
<g id="Node000007" class="node">
<title>Node7</title>
<g id="a_Node000007"><a xlink:title=" ">
<polygon fill="white" stroke="#666666" points="427,-208 208,-208 208,-156 427,-156 427,-208"/>
<text text-anchor="start" x="216" y="-196" font-family="Helvetica,sans-Serif" font-size="10.00">std::unordered_map</text>
<text text-anchor="start" x="216" y="-185" font-family="Helvetica,sans-Serif" font-size="10.00">&lt; ground_segmentation</text>
<text text-anchor="start" x="216" y="-174" font-family="Helvetica,sans-Serif" font-size="10.00">::Index3D, size_t, ground</text>
<text text-anchor="middle" x="317.5" y="-163" font-family="Helvetica,sans-Serif" font-size="10.00">_segmentation::Index3D::HashFunction &gt;</text>
</a>
</g>
</g>
<!-- Node3&#45;&gt;Node7 -->
<g id="edge8_Node000007_Node000003" class="edge">
<title>Node3&#45;&gt;Node7</title>
<g id="a_edge8_Node000007_Node000003"><a xlink:title=" ">
<path fill="none" stroke="#9a32cd" stroke-dasharray="5,2" d="M133.1,-143.73C156.3,-148.57 182.65,-154.07 208,-159.36"/>
<polygon fill="#9a32cd" stroke="#9a32cd" points="133.52,-140.24 123.02,-141.63 132.09,-147.1 133.52,-140.24"/>
</a>
</g>
<text text-anchor="middle" x="165.5" y="-158" font-family="Helvetica,sans-Serif" font-size="10.00" fill="grey"> keys</text>
</g>
<!-- Node4&#45;&gt;Node1 -->
<g id="edge3_Node000001_Node000004" class="edge">
<title>Node4&#45;&gt;Node1</title>
<g id="a_edge3_Node000001_Node000004"><a xlink:title=" ">
<path fill="none" stroke="#9a32cd" stroke-dasharray="5,2" d="M399.44,-70.22C445.4,-71.29 503.97,-73.29 556,-77 561.74,-77.41 567.67,-77.9 573.63,-78.45"/>
<polygon fill="#9a32cd" stroke="#9a32cd" points="399.32,-66.72 389.24,-69.99 399.16,-73.71 399.32,-66.72"/>
</a>
</g>
<text text-anchor="middle" x="500.5" y="-80" font-family="Helvetica,sans-Serif" font-size="10.00" fill="grey"> gridCells</text>
</g>
<!-- Node5 -->
<g id="Node000005" class="node">
<title>Node5</title>
<g id="a_Node000005"><a xlink:href="structground__segmentation_1_1GridCell.html" target="_top" xlink:title="Represents one discretized 3D voxel in the spatial grid.">
<polygon fill="white" stroke="#666666" points="123,-76 0,-76 0,-46 123,-46 123,-76"/>
<text text-anchor="start" x="8" y="-64" font-family="Helvetica,sans-Serif" font-size="10.00">ground_segmentation</text>
<text text-anchor="middle" x="61.5" y="-53" font-family="Helvetica,sans-Serif" font-size="10.00">::GridCell&lt; PointT &gt;</text>
</a>
</g>
</g>
<!-- Node5&#45;&gt;Node4 -->
<g id="edge5_Node000004_Node000005" class="edge">
<title>Node5&#45;&gt;Node4</title>
<g id="a_edge5_Node000004_Node000005"><a xlink:title=" ">
<path fill="none" stroke="#9a32cd" stroke-dasharray="5,2" d="M133.25,-60.96C151.73,-61.11 171.61,-61.42 190,-62 208.14,-62.57 227.72,-63.5 245.94,-64.5"/>
<polygon fill="#9a32cd" stroke="#9a32cd" points="133.18,-57.46 123.15,-60.89 133.13,-64.46 133.18,-57.46"/>
</a>
</g>
<text text-anchor="middle" x="165.5" y="-65" font-family="Helvetica,sans-Serif" font-size="10.00" fill="grey"> elements</text>
</g>
<!-- Node6 -->
<g id="Node000006" class="node">
<title>Node6</title>
<g id="a_Node000006"><a xlink:href="structground__segmentation_1_1GridConfig.html" target="_top" xlink:title="Configuration parameters controlling segmentation behavior.">
<polygon fill="white" stroke="#666666" points="379,-30 256,-30 256,0 379,0 379,-30"/>
<text text-anchor="start" x="264" y="-18" font-family="Helvetica,sans-Serif" font-size="10.00">ground_segmentation</text>
<text text-anchor="middle" x="317.5" y="-7" font-family="Helvetica,sans-Serif" font-size="10.00">::GridConfig</text>
</a>
</g>
</g>
<!-- Node6&#45;&gt;Node1 -->
<g id="edge6_Node000001_Node000006" class="edge">
<title>Node6&#45;&gt;Node1</title>
<g id="a_edge6_Node000001_Node000006"><a xlink:title=" ">
<path fill="none" stroke="#9a32cd" stroke-dasharray="5,2" d="M388.92,-24.77C436.47,-32.02 500.45,-43.06 556,-57 572.54,-61.15 590.42,-66.76 605.96,-72"/>
<polygon fill="#9a32cd" stroke="#9a32cd" points="389.44,-21.31 379.03,-23.28 388.4,-28.23 389.44,-21.31"/>
</a>
</g>
<text text-anchor="middle" x="500.5" y="-60" font-family="Helvetica,sans-Serif" font-size="10.00" fill="grey"> grid_config</text>
</g>
<!-- Node7&#45;&gt;Node1 -->
<g id="edge7_Node000001_Node000007" class="edge">
<title>Node7&#45;&gt;Node1</title>
<g id="a_edge7_Node000001_Node000007"><a xlink:title=" ">
<path fill="none" stroke="#9a32cd" stroke-dasharray="5,2" d="M437.61,-182.16C476.44,-178.91 519.05,-171.71 556,-157 587.03,-144.64 616.51,-118.62 633.26,-102.02"/>
<polygon fill="#9a32cd" stroke="#9a32cd" points="437,-178.69 427.29,-182.94 437.53,-185.67 437,-178.69"/>
</a>
</g>
<text text-anchor="middle" x="500.5" y="-184" font-family="Helvetica,sans-Serif" font-size="10.00" fill="grey"> index_to_centroid_idx</text>
</g>
</g>
</svg>
