<?xml version="1.0" encoding="UTF-8" standalone="no"?>
<!DOCTYPE svg PUBLIC "-//W3C//DTD SVG 1.1//EN"
 "http://www.w3.org/Graphics/SVG/1.1/DTD/svg11.dtd">
<!-- Generated by graphviz version 2.43.0 (0)
 -->
<!-- Title: /home/runner/work/ground_segmentation/ground_segmentation/include/ground_detection_types.hpp Pages: 1 -->
<svg width="1362pt" height="115pt"
 viewBox="0.00 0.00 1361.50 115.00" xmlns="http://www.w3.org/2000/svg" xmlns:xlink="http://www.w3.org/1999/xlink">
<g id="graph0" class="graph" transform="scale(1 1) rotate(0) translate(4 111)">
<title>/home/runner/work/ground_segmentation/ground_segmentation/include/ground_detection_types.hpp</title>
<!-- Node1 -->
<g id="Node000001" class="node">
<title>Node1</title>
<g id="a_Node000001"><a xlink:title="Core data structures and configuration types for grid&#45;based ground segmentation.">
<polygon fill="#999999" stroke="#666666" points="958.5,-107 759.5,-107 759.5,-66 958.5,-66 958.5,-107"/>
<text text-anchor="start" x="767.5" y="-95" font-family="Helvetica,sans-Serif" font-size="10.00">/home/runner/work/ground</text>
<text text-anchor="start" x="767.5" y="-84" font-family="Helvetica,sans-Serif" font-size="10.00">_segmentation/ground_segmentation</text>
<text text-anchor="middle" x="859" y="-73" font-family="Helvetica,sans-Serif" font-size="10.00">/include/ground_detection_types.hpp</text>
</a>
</g>
</g>
<!-- Node2 -->
<g id="Node000002" class="node">
<title>Node2</title>
<g id="a_Node000002"><a xlink:title=" ">
<polygon fill="#e0e0e0" stroke="#999999" points="142,-24.5 0,-24.5 0,-5.5 142,-5.5 142,-24.5"/>
<text text-anchor="middle" x="71" y="-12.5" font-family="Helvetica,sans-Serif" font-size="10.00">pcl/common/transforms.h</text>
</a>
</g>
</g>
<!-- Node1&#45;&gt;Node2 -->
<g id="edge1_Node000001_Node000002" class="edge">
<title>Node1&#45;&gt;Node2</title>
<g id="a_edge1_Node000001_Node000002"><a xlink:title=" ">
<path fill="none" stroke="#63b8ff" d="M759.32,-80.68C622,-73.35 367.05,-57.31 151,-30 142.65,-28.95 133.85,-27.62 125.27,-26.21"/>
<polygon fill="#63b8ff" stroke="#63b8ff" points="125.76,-22.75 115.32,-24.53 124.59,-29.65 125.76,-22.75"/>
</a>
</g>
</g>
<!-- Node3 -->
<g id="Node000003" class="node">
<title>Node3</title>
<g id="a_Node000003"><a xlink:title=" ">
<polygon fill="#e0e0e0" stroke="#999999" points="288,-24.5 160,-24.5 160,-5.5 288,-5.5 288,-24.5"/>
<text text-anchor="middle" x="224" y="-12.5" font-family="Helvetica,sans-Serif" font-size="10.00">pcl/common/centroid.h</text>
</a>
</g>
</g>
<!-- Node1&#45;&gt;Node3 -->
<g id="edge2_Node000001_Node000003" class="edge">
<title>Node1&#45;&gt;Node3</title>
<g id="a_edge2_Node000001_Node000003"><a xlink:title=" ">
<path fill="none" stroke="#63b8ff" d="M759.43,-78.42C646.84,-69.78 458.19,-53.37 297,-30 289.8,-28.96 282.23,-27.69 274.81,-26.36"/>
<polygon fill="#63b8ff" stroke="#63b8ff" points="275.29,-22.89 264.81,-24.51 274.01,-29.77 275.29,-22.89"/>
</a>
</g>
</g>
<!-- Node4 -->
<g id="Node000004" class="node">
<title>Node4</title>
<g id="a_Node000004"><a xlink:title=" ">
<polygon fill="#e0e0e0" stroke="#999999" points="427.5,-30 306.5,-30 306.5,0 427.5,0 427.5,-30"/>
<text text-anchor="start" x="314.5" y="-18" font-family="Helvetica,sans-Serif" font-size="10.00">pcl/segmentation/sac</text>
<text text-anchor="middle" x="367" y="-7" font-family="Helvetica,sans-Serif" font-size="10.00">_segmentation.h</text>
</a>
</g>
</g>
<!-- Node1&#45;&gt;Node4 -->
<g id="edge3_Node000001_Node000004" class="edge">
<title>Node1&#45;&gt;Node4</title>
<g id="a_edge3_Node000001_Node000004"><a xlink:title=" ">
<path fill="none" stroke="#63b8ff" d="M759.14,-74.39C675.67,-64.64 553.3,-49.28 437.63,-30.21"/>
<polygon fill="#63b8ff" stroke="#63b8ff" points="437.98,-26.72 427.54,-28.53 436.83,-33.62 437.98,-26.72"/>
</a>
</g>
</g>
<!-- Node5 -->
<g id="Node000005" class="node">
<title>Node5</title>
<g id="a_Node000005"><a xlink:title=" ">
<polygon fill="#e0e0e0" stroke="#999999" points="544.5,-30 445.5,-30 445.5,0 544.5,0 544.5,-30"/>
<text text-anchor="start" x="453.5" y="-18" font-family="Helvetica,sans-Serif" font-size="10.00">pcl/filters/extract</text>
<text text-anchor="middle" x="495" y="-7" font-family="Helvetica,sans-Serif" font-size="10.00">_indices.h</text>
</a>
</g>
</g>
<!-- Node1&#45;&gt;Node5 -->
<g id="edge4_Node000001_Node000005" class="edge">
<title>Node1&#45;&gt;Node5</title>
<g id="a_edge4_Node000001_Node000005"><a xlink:title=" ">
<path fill="none" stroke="#63b8ff" d="M759.49,-68.94C702.09,-59.03 628.33,-45.71 554.57,-30.27"/>
<polygon fill="#63b8ff" stroke="#63b8ff" points="555.14,-26.81 544.63,-28.18 553.7,-33.66 555.14,-26.81"/>
</a>
</g>
</g>
<!-- Node6 -->
<g id="Node000006" class="node">
<title>Node6</title>
<g id="a_Node000006"><a xlink:title=" ">
<polygon fill="#e0e0e0" stroke="#999999" points="693.5,-24.5 562.5,-24.5 562.5,-5.5 693.5,-5.5 693.5,-24.5"/>
<text text-anchor="middle" x="628" y="-12.5" font-family="Helvetica,sans-Serif" font-size="10.00">pcl/common/common.h</text>
</a>
</g>
</g>
<!-- Node1&#45;&gt;Node6 -->
<g id="edge5_Node000001_Node000006" class="edge">
<title>Node1&#45;&gt;Node6</title>
<g id="a_edge5_Node000001_Node000006"><a xlink:title=" ">
<path fill="none" stroke="#63b8ff" d="M794.04,-65.96C752.74,-53.53 700.71,-37.88 666.01,-27.44"/>
<polygon fill="#63b8ff" stroke="#63b8ff" points="666.85,-24.03 656.26,-24.5 664.83,-30.74 666.85,-24.03"/>
</a>
</g>
</g>
<!-- Node7 -->
<g id="Node000007" class="node">
<title>Node7</title>
<g id="a_Node000007"><a xlink:title=" ">
<polygon fill="#e0e0e0" stroke="#999999" points="850,-24.5 712,-24.5 712,-5.5 850,-5.5 850,-24.5"/>
<text text-anchor="middle" x="781" y="-12.5" font-family="Helvetica,sans-Serif" font-size="10.00">pcl/kdtree/kdtree_flann.h</text>
</a>
</g>
</g>
<!-- Node1&#45;&gt;Node7 -->
<g id="edge6_Node000001_Node000007" class="edge">
<title>Node1&#45;&gt;Node7</title>
<g id="a_edge6_Node000001_Node000007"><a xlink:title=" ">
<path fill="none" stroke="#63b8ff" d="M836.86,-65.77C824.68,-54.92 809.79,-41.65 798.44,-31.54"/>
<polygon fill="#63b8ff" stroke="#63b8ff" points="800.69,-28.86 790.9,-24.82 796.04,-34.09 800.69,-28.86"/>
</a>
</g>
</g>
<!-- Node8 -->
<g id="Node000008" class="node">
<title>Node8</title>
<g id="a_Node000008"><a xlink:title=" ">
<polygon fill="#e0e0e0" stroke="#999999" points="1006,-24.5 868,-24.5 868,-5.5 1006,-5.5 1006,-24.5"/>
<text text-anchor="middle" x="937" y="-12.5" font-family="Helvetica,sans-Serif" font-size="10.00">pcl/features/normal_3d.h</text>
</a>
</g>
</g>
<!-- Node1&#45;&gt;Node8 -->
<g id="edge7_Node000001_Node000008" class="edge">
<title>Node1&#45;&gt;Node8</title>
<g id="a_edge7_Node000001_Node000008"><a xlink:title=" ">
<path fill="none" stroke="#63b8ff" d="M881.14,-65.77C893.32,-54.92 908.21,-41.65 919.56,-31.54"/>
<polygon fill="#63b8ff" stroke="#63b8ff" points="921.96,-34.09 927.1,-24.82 917.31,-28.86 921.96,-34.09"/>
</a>
</g>
</g>
<!-- Node9 -->
<g id="Node000009" class="node">
<title>Node9</title>
<g id="a_Node000009"><a xlink:title=" ">
<polygon fill="#e0e0e0" stroke="#999999" points="1101.5,-24.5 1024.5,-24.5 1024.5,-5.5 1101.5,-5.5 1101.5,-24.5"/>
<text text-anchor="middle" x="1063" y="-12.5" font-family="Helvetica,sans-Serif" font-size="10.00">Eigen/Dense</text>
</a>
</g>
</g>
<!-- Node1&#45;&gt;Node9 -->
<g id="edge8_Node000001_Node000009" class="edge">
<title>Node1&#45;&gt;Node9</title>
<g id="a_edge8_Node000001_Node000009"><a xlink:title=" ">
<path fill="none" stroke="#63b8ff" d="M916.37,-65.96C952.37,-53.69 997.6,-38.28 1028.24,-27.84"/>
<polygon fill="#63b8ff" stroke="#63b8ff" points="1029.7,-31.04 1038.04,-24.5 1027.45,-24.42 1029.7,-31.04"/>
</a>
</g>
</g>
<!-- Node10 -->
<g id="Node000010" class="node">
<title>Node10</title>
<g id="a_Node000010"><a xlink:title=" ">
<polygon fill="#e0e0e0" stroke="#999999" points="1166.5,-24.5 1119.5,-24.5 1119.5,-5.5 1166.5,-5.5 1166.5,-24.5"/>
<text text-anchor="middle" x="1143" y="-12.5" font-family="Helvetica,sans-Serif" font-size="10.00">vector</text>
</a>
</g>
</g>
<!-- Node1&#45;&gt;Node10 -->
<g id="edge9_Node000001_Node000010" class="edge">
<title>Node1&#45;&gt;Node10</title>
<g id="a_edge9_Node000001_Node000010"><a xlink:title=" ">
<path fill="none" stroke="#63b8ff" d="M958.63,-68.23C1005.45,-58.93 1061.69,-46.05 1111,-30 1112.44,-29.53 1113.91,-29.02 1115.38,-28.48"/>
<polygon fill="#63b8ff" stroke="#63b8ff" points="1116.99,-31.6 1124.96,-24.62 1114.38,-25.11 1116.99,-31.6"/>
</a>
</g>
</g>
<!-- Node11 -->
<g id="Node000011" class="node">
<title>Node11</title>
<g id="a_Node000011"><a xlink:title=" ">
<polygon fill="#e0e0e0" stroke="#999999" points="1231.5,-24.5 1184.5,-24.5 1184.5,-5.5 1231.5,-5.5 1231.5,-24.5"/>
<text text-anchor="middle" x="1208" y="-12.5" font-family="Helvetica,sans-Serif" font-size="10.00">cmath</text>
</a>
</g>
</g>
<!-- Node1&#45;&gt;Node11 -->
<g id="edge10_Node000001_Node000011" class="edge">
<title>Node1&#45;&gt;Node11</title>
<g id="a_edge10_Node000001_Node000011"><a xlink:title=" ">
<path fill="none" stroke="#63b8ff" d="M958.59,-74.28C1021.76,-65.65 1104.72,-51.49 1176,-30 1177.64,-29.51 1179.3,-28.95 1180.97,-28.36"/>
<polygon fill="#63b8ff" stroke="#63b8ff" points="1182.35,-31.57 1190.34,-24.62 1179.76,-25.07 1182.35,-31.57"/>
</a>
</g>
</g>
<!-- Node12 -->
<g id="Node000012" class="node">
<title>Node12</title>
<g id="a_Node000012"><a xlink:title=" ">
<polygon fill="#e0e0e0" stroke="#999999" points="1288,-24.5 1250,-24.5 1250,-5.5 1288,-5.5 1288,-24.5"/>
<text text-anchor="middle" x="1269" y="-12.5" font-family="Helvetica,sans-Serif" font-size="10.00">map</text>
</a>
</g>
</g>
<!-- Node1&#45;&gt;Node12 -->
<g id="edge11_Node000001_Node000012" class="edge">
<title>Node1&#45;&gt;Node12</title>
<g id="a_edge11_Node000001_Node000012"><a xlink:title=" ">
<path fill="none" stroke="#63b8ff" d="M958.67,-79.75C1036.9,-73.17 1147.8,-59.23 1241,-30 1242.23,-29.62 1243.46,-29.18 1244.7,-28.71"/>
<polygon fill="#63b8ff" stroke="#63b8ff" points="1246.23,-31.86 1253.96,-24.62 1243.4,-25.46 1246.23,-31.86"/>
</a>
</g>
</g>
<!-- Node13 -->
<g id="Node000013" class="node">
<title>Node13</title>
<g id="a_Node000013"><a xlink:title=" ">
<polygon fill="#e0e0e0" stroke="#999999" points="1353.5,-24.5 1306.5,-24.5 1306.5,-5.5 1353.5,-5.5 1353.5,-24.5"/>
<text text-anchor="middle" x="1330" y="-12.5" font-family="Helvetica,sans-Serif" font-size="10.00">queue</text>
</a>
</g>
</g>
<!-- Node1&#45;&gt;Node13 -->
<g id="edge12_Node000001_Node000013" class="edge">
<title>Node1&#45;&gt;Node13</title>
<g id="a_edge12_Node000001_Node000013"><a xlink:title=" ">
<path fill="none" stroke="#63b8ff" d="M958.79,-80.68C1048.56,-74.51 1183.41,-60.66 1297,-30 1298.89,-29.49 1300.82,-28.89 1302.74,-28.24"/>
<polygon fill="#63b8ff" stroke="#63b8ff" points="1304.08,-31.47 1312.16,-24.62 1301.57,-24.94 1304.08,-31.47"/>
</a>
</g>
</g>
</g>
</svg>
