<?xml version="1.0" encoding="UTF-8" standalone="no"?>
<!DOCTYPE svg PUBLIC "-//W3C//DTD SVG 1.1//EN"
 "http://www.w3.org/Graphics/SVG/1.1/DTD/svg11.dtd">
<!-- Generated by graphviz version 2.43.0 (0)
 -->
<!-- Title: /home/runner/work/ground_segmentation/ground_segmentation/include/pointcloud_processor.hpp Pages: 1 -->
<svg width="1816pt" height="115pt"
 viewBox="0.00 0.00 1816.00 115.00" xmlns="http://www.w3.org/2000/svg" xmlns:xlink="http://www.w3.org/1999/xlink">
<g id="graph0" class="graph" transform="scale(1 1) rotate(0) translate(4 111)">
<title>/home/runner/work/ground_segmentation/ground_segmentation/include/pointcloud_processor.hpp</title>
<!-- Node1 -->
<g id="Node000001" class="node">
<title>Node1</title>
<g id="a_Node000001"><a xlink:title=" ">
<polygon fill="#999999" stroke="#666666" points="1161.5,-107 962.5,-107 962.5,-66 1161.5,-66 1161.5,-107"/>
<text text-anchor="start" x="970.5" y="-95" font-family="Helvetica,sans-Serif" font-size="10.00">/home/runner/work/ground</text>
<text text-anchor="start" x="970.5" y="-84" font-family="Helvetica,sans-Serif" font-size="10.00">_segmentation/ground_segmentation</text>
<text text-anchor="middle" x="1062" y="-73" font-family="Helvetica,sans-Serif" font-size="10.00">/include/pointcloud_processor.hpp</text>
</a>
</g>
</g>
<!-- Node2 -->
<g id="Node000002" class="node">
<title>Node2</title>
<g id="a_Node000002"><a xlink:title=" ">
<polygon fill="#e0e0e0" stroke="#999999" points="86,-24.5 0,-24.5 0,-5.5 86,-5.5 86,-24.5"/>
<text text-anchor="middle" x="43" y="-12.5" font-family="Helvetica,sans-Serif" font-size="10.00">pcl/io/pcd_io.h</text>
</a>
</g>
</g>
<!-- Node1&#45;&gt;Node2 -->
<g id="edge1_Node000001_Node000002" class="edge">
<title>Node1&#45;&gt;Node2</title>
<g id="a_edge1_Node000001_Node000002"><a xlink:title=" ">
<path fill="none" stroke="#63b8ff" d="M962.5,-82.39C750.4,-75.32 259.76,-56.62 95,-30 90.23,-29.23 85.27,-28.2 80.39,-27.05"/>
<polygon fill="#63b8ff" stroke="#63b8ff" points="81.12,-23.62 70.57,-24.55 79.4,-30.41 81.12,-23.62"/>
</a>
</g>
</g>
<!-- Node3 -->
<g id="Node000003" class="node">
<title>Node3</title>
<g id="a_Node000003"><a xlink:title=" ">
<polygon fill="#e0e0e0" stroke="#999999" points="235.5,-24.5 104.5,-24.5 104.5,-5.5 235.5,-5.5 235.5,-24.5"/>
<text text-anchor="middle" x="170" y="-12.5" font-family="Helvetica,sans-Serif" font-size="10.00">pcl/common/common.h</text>
</a>
</g>
</g>
<!-- Node1&#45;&gt;Node3 -->
<g id="edge2_Node000001_Node000003" class="edge">
<title>Node1&#45;&gt;Node3</title>
<g id="a_edge2_Node000001_Node000003"><a xlink:title=" ">
<path fill="none" stroke="#63b8ff" d="M962.47,-82.57C808.09,-77.17 501.84,-63.02 244,-30 236.25,-29.01 228.08,-27.72 220.12,-26.32"/>
<polygon fill="#63b8ff" stroke="#63b8ff" points="220.65,-22.86 210.19,-24.51 219.4,-29.74 220.65,-22.86"/>
</a>
</g>
</g>
<!-- Node4 -->
<g id="Node000004" class="node">
<title>Node4</title>
<g id="a_Node000004"><a xlink:title=" ">
<polygon fill="#e0e0e0" stroke="#999999" points="352.5,-30 253.5,-30 253.5,0 352.5,0 352.5,-30"/>
<text text-anchor="start" x="261.5" y="-18" font-family="Helvetica,sans-Serif" font-size="10.00">pcl/filters/extract</text>
<text text-anchor="middle" x="303" y="-7" font-family="Helvetica,sans-Serif" font-size="10.00">_indices.h</text>
</a>
</g>
</g>
<!-- Node1&#45;&gt;Node4 -->
<g id="edge3_Node000001_Node000004" class="edge">
<title>Node1&#45;&gt;Node4</title>
<g id="a_edge3_Node000001_Node000004"><a xlink:title=" ">
<path fill="none" stroke="#63b8ff" d="M962.32,-82.42C828.11,-77.19 581.85,-63.81 362.86,-29.96"/>
<polygon fill="#63b8ff" stroke="#63b8ff" points="363.21,-26.47 352.79,-28.38 362.13,-33.39 363.21,-26.47"/>
</a>
</g>
</g>
<!-- Node5 -->
<g id="Node000005" class="node">
<title>Node5</title>
<g id="a_Node000005"><a xlink:title=" ">
<polygon fill="#e0e0e0" stroke="#999999" points="495,-24.5 371,-24.5 371,-5.5 495,-5.5 495,-24.5"/>
<text text-anchor="middle" x="433" y="-12.5" font-family="Helvetica,sans-Serif" font-size="10.00">pcl/filters/voxel_grid.h</text>
</a>
</g>
</g>
<!-- Node1&#45;&gt;Node5 -->
<g id="edge4_Node000001_Node000005" class="edge">
<title>Node1&#45;&gt;Node5</title>
<g id="a_edge4_Node000001_Node000005"><a xlink:title=" ">
<path fill="none" stroke="#63b8ff" d="M962.36,-78.48C850.46,-69.92 663.62,-53.62 504,-30 497.15,-28.99 489.96,-27.76 482.9,-26.46"/>
<polygon fill="#63b8ff" stroke="#63b8ff" points="483.17,-22.95 472.69,-24.52 481.86,-29.83 483.17,-22.95"/>
</a>
</g>
</g>
<!-- Node6 -->
<g id="Node000006" class="node">
<title>Node6</title>
<g id="a_Node000006"><a xlink:title=" ">
<polygon fill="#e0e0e0" stroke="#999999" points="631,-24.5 513,-24.5 513,-5.5 631,-5.5 631,-24.5"/>
<text text-anchor="middle" x="572" y="-12.5" font-family="Helvetica,sans-Serif" font-size="10.00">pcl/filters/crop_box.h</text>
</a>
</g>
</g>
<!-- Node1&#45;&gt;Node6 -->
<g id="edge5_Node000001_Node000006" class="edge">
<title>Node1&#45;&gt;Node6</title>
<g id="a_edge5_Node000001_Node000006"><a xlink:title=" ">
<path fill="none" stroke="#63b8ff" d="M962.36,-74.45C876.66,-64.46 749.85,-48.51 640,-30 633.84,-28.96 627.38,-27.77 621.01,-26.53"/>
<polygon fill="#63b8ff" stroke="#63b8ff" points="621.6,-23.08 611.1,-24.55 620.23,-29.94 621.6,-23.08"/>
</a>
</g>
</g>
<!-- Node7 -->
<g id="Node000007" class="node">
<title>Node7</title>
<g id="a_Node000007"><a xlink:title=" ">
<polygon fill="#e0e0e0" stroke="#999999" points="758.5,-24.5 649.5,-24.5 649.5,-5.5 758.5,-5.5 758.5,-24.5"/>
<text text-anchor="middle" x="704" y="-12.5" font-family="Helvetica,sans-Serif" font-size="10.00">pcl/kdtree/kdtree.h</text>
</a>
</g>
</g>
<!-- Node1&#45;&gt;Node7 -->
<g id="edge6_Node000001_Node000007" class="edge">
<title>Node1&#45;&gt;Node7</title>
<g id="a_edge6_Node000001_Node000007"><a xlink:title=" ">
<path fill="none" stroke="#63b8ff" d="M962.5,-67.62C905.23,-57.12 831.96,-43.33 767,-30 761.98,-28.97 756.75,-27.86 751.54,-26.74"/>
<polygon fill="#63b8ff" stroke="#63b8ff" points="752.12,-23.28 741.6,-24.57 750.62,-30.12 752.12,-23.28"/>
</a>
</g>
</g>
<!-- Node8 -->
<g id="Node000008" class="node">
<title>Node8</title>
<g id="a_Node000008"><a xlink:title=" ">
<polygon fill="#e0e0e0" stroke="#999999" points="897.5,-30 776.5,-30 776.5,0 897.5,0 897.5,-30"/>
<text text-anchor="start" x="784.5" y="-18" font-family="Helvetica,sans-Serif" font-size="10.00">pcl/segmentation/sac</text>
<text text-anchor="middle" x="837" y="-7" font-family="Helvetica,sans-Serif" font-size="10.00">_segmentation.h</text>
</a>
</g>
</g>
<!-- Node1&#45;&gt;Node8 -->
<g id="edge7_Node000001_Node000008" class="edge">
<title>Node1&#45;&gt;Node8</title>
<g id="a_edge7_Node000001_Node000008"><a xlink:title=" ">
<path fill="none" stroke="#63b8ff" d="M998.73,-65.96C965.15,-55.59 924.3,-42.97 892.05,-33"/>
<polygon fill="#63b8ff" stroke="#63b8ff" points="892.92,-29.61 882.34,-30 890.86,-36.3 892.92,-29.61"/>
</a>
</g>
</g>
<!-- Node9 -->
<g id="Node000009" class="node">
<title>Node9</title>
<g id="a_Node000009"><a xlink:title=" ">
<polygon fill="#e0e0e0" stroke="#999999" points="1054.5,-30 915.5,-30 915.5,0 1054.5,0 1054.5,-30"/>
<text text-anchor="start" x="923.5" y="-18" font-family="Helvetica,sans-Serif" font-size="10.00">pcl/segmentation/extract</text>
<text text-anchor="middle" x="985" y="-7" font-family="Helvetica,sans-Serif" font-size="10.00">_clusters.h</text>
</a>
</g>
</g>
<!-- Node1&#45;&gt;Node9 -->
<g id="edge8_Node000001_Node000009" class="edge">
<title>Node1&#45;&gt;Node9</title>
<g id="a_edge8_Node000001_Node000009"><a xlink:title=" ">
<path fill="none" stroke="#63b8ff" d="M1040.14,-65.77C1030.18,-56.78 1018.37,-46.12 1008.25,-36.98"/>
<polygon fill="#63b8ff" stroke="#63b8ff" points="1010.32,-34.14 1000.55,-30.04 1005.63,-39.34 1010.32,-34.14"/>
</a>
</g>
</g>
<!-- Node10 -->
<g id="Node000010" class="node">
<title>Node10</title>
<g id="a_Node000010"><a xlink:title=" ">
<polygon fill="#e0e0e0" stroke="#999999" points="1207.5,-30 1072.5,-30 1072.5,0 1207.5,0 1207.5,-30"/>
<text text-anchor="start" x="1080.5" y="-18" font-family="Helvetica,sans-Serif" font-size="10.00">pcl/features/moment</text>
<text text-anchor="middle" x="1140" y="-7" font-family="Helvetica,sans-Serif" font-size="10.00">_of_inertia_estimation.h</text>
</a>
</g>
</g>
<!-- Node1&#45;&gt;Node10 -->
<g id="edge9_Node000001_Node000010" class="edge">
<title>Node1&#45;&gt;Node10</title>
<g id="a_edge9_Node000001_Node000010"><a xlink:title=" ">
<path fill="none" stroke="#63b8ff" d="M1084.14,-65.77C1094.34,-56.69 1106.43,-45.91 1116.76,-36.71"/>
<polygon fill="#63b8ff" stroke="#63b8ff" points="1119.11,-39.3 1124.24,-30.04 1114.45,-34.08 1119.11,-39.3"/>
</a>
</g>
</g>
<!-- Node11 -->
<g id="Node000011" class="node">
<title>Node11</title>
<g id="a_Node000011"><a xlink:title=" ">
<polygon fill="#e0e0e0" stroke="#999999" points="1368,-24.5 1226,-24.5 1226,-5.5 1368,-5.5 1368,-24.5"/>
<text text-anchor="middle" x="1297" y="-12.5" font-family="Helvetica,sans-Serif" font-size="10.00">pcl/common/transforms.h</text>
</a>
</g>
</g>
<!-- Node1&#45;&gt;Node11 -->
<g id="edge10_Node000001_Node000011" class="edge">
<title>Node1&#45;&gt;Node11</title>
<g id="a_edge10_Node000001_Node000011"><a xlink:title=" ">
<path fill="none" stroke="#63b8ff" d="M1128.09,-65.96C1170.1,-53.53 1223.03,-37.88 1258.33,-27.44"/>
<polygon fill="#63b8ff" stroke="#63b8ff" points="1259.65,-30.7 1268.25,-24.5 1257.66,-23.98 1259.65,-30.7"/>
</a>
</g>
</g>
<!-- Node12 -->
<g id="Node000012" class="node">
<title>Node12</title>
<g id="a_Node000012"><a xlink:title=" ">
<polygon fill="#e0e0e0" stroke="#999999" points="1446,-24.5 1386,-24.5 1386,-5.5 1446,-5.5 1446,-24.5"/>
<text text-anchor="middle" x="1416" y="-12.5" font-family="Helvetica,sans-Serif" font-size="10.00">iostream</text>
</a>
</g>
</g>
<!-- Node1&#45;&gt;Node12 -->
<g id="edge11_Node000001_Node000012" class="edge">
<title>Node1&#45;&gt;Node12</title>
<g id="a_edge11_Node000001_Node000012"><a xlink:title=" ">
<path fill="none" stroke="#63b8ff" d="M1161.55,-72.4C1224,-63.09 1305.89,-48.88 1377,-30 1379.49,-29.34 1382.06,-28.59 1384.62,-27.78"/>
<polygon fill="#63b8ff" stroke="#63b8ff" points="1385.98,-31.02 1394.34,-24.51 1383.75,-24.38 1385.98,-31.02"/>
</a>
</g>
</g>
<!-- Node13 -->
<g id="Node000013" class="node">
<title>Node13</title>
<g id="a_Node000013"><a xlink:title=" ">
<polygon fill="#e0e0e0" stroke="#999999" points="1508,-24.5 1464,-24.5 1464,-5.5 1508,-5.5 1508,-24.5"/>
<text text-anchor="middle" x="1486" y="-12.5" font-family="Helvetica,sans-Serif" font-size="10.00">string</text>
</a>
</g>
</g>
<!-- Node1&#45;&gt;Node13 -->
<g id="edge12_Node000001_Node000013" class="edge">
<title>Node1&#45;&gt;Node13</title>
<g id="a_edge12_Node000001_Node000013"><a xlink:title=" ">
<path fill="none" stroke="#63b8ff" d="M1161.75,-79.26C1242.18,-72.37 1357.55,-58.26 1455,-30 1456.64,-29.53 1458.3,-28.98 1459.96,-28.38"/>
<polygon fill="#63b8ff" stroke="#63b8ff" points="1461.33,-31.61 1469.27,-24.6 1458.69,-25.12 1461.33,-31.61"/>
</a>
</g>
</g>
<!-- Node14 -->
<g id="Node000014" class="node">
<title>Node14</title>
<g id="a_Node000014"><a xlink:title=" ">
<polygon fill="#e0e0e0" stroke="#999999" points="1573.5,-24.5 1526.5,-24.5 1526.5,-5.5 1573.5,-5.5 1573.5,-24.5"/>
<text text-anchor="middle" x="1550" y="-12.5" font-family="Helvetica,sans-Serif" font-size="10.00">vector</text>
</a>
</g>
</g>
<!-- Node1&#45;&gt;Node14 -->
<g id="edge13_Node000001_Node000014" class="edge">
<title>Node1&#45;&gt;Node14</title>
<g id="a_edge13_Node000001_Node000014"><a xlink:title=" ">
<path fill="none" stroke="#63b8ff" d="M1161.59,-81.36C1254.8,-75.62 1397.26,-62.02 1517,-30 1518.89,-29.49 1520.82,-28.9 1522.75,-28.25"/>
<polygon fill="#63b8ff" stroke="#63b8ff" points="1524.08,-31.48 1532.17,-24.64 1521.58,-24.95 1524.08,-31.48"/>
</a>
</g>
</g>
<!-- Node15 -->
<g id="Node000015" class="node">
<title>Node15</title>
<g id="a_Node000015"><a xlink:title=" ">
<polygon fill="#e0e0e0" stroke="#999999" points="1636,-24.5 1592,-24.5 1592,-5.5 1636,-5.5 1636,-24.5"/>
<text text-anchor="middle" x="1614" y="-12.5" font-family="Helvetica,sans-Serif" font-size="10.00">ctime</text>
</a>
</g>
</g>
<!-- Node1&#45;&gt;Node15 -->
<g id="edge14_Node000001_Node000015" class="edge">
<title>Node1&#45;&gt;Node15</title>
<g id="a_edge14_Node000001_Node000015"><a xlink:title=" ">
<path fill="none" stroke="#63b8ff" d="M1161.67,-84.23C1267.82,-80.73 1439.91,-68.86 1583,-30 1584.68,-29.54 1586.39,-29 1588.1,-28.41"/>
<polygon fill="#63b8ff" stroke="#63b8ff" points="1589.67,-31.55 1597.63,-24.56 1587.05,-25.06 1589.67,-31.55"/>
</a>
</g>
</g>
<!-- Node16 -->
<g id="Node000016" class="node">
<title>Node16</title>
<g id="a_Node000016"><a xlink:title=" ">
<polygon fill="#e0e0e0" stroke="#999999" points="1704,-24.5 1654,-24.5 1654,-5.5 1704,-5.5 1704,-24.5"/>
<text text-anchor="middle" x="1679" y="-12.5" font-family="Helvetica,sans-Serif" font-size="10.00">chrono</text>
</a>
</g>
</g>
<!-- Node1&#45;&gt;Node16 -->
<g id="edge15_Node000001_Node000016" class="edge">
<title>Node1&#45;&gt;Node16</title>
<g id="a_edge15_Node000001_Node000016"><a xlink:title=" ">
<path fill="none" stroke="#63b8ff" d="M1161.75,-84.91C1279.04,-82.18 1478.83,-71.15 1645,-30 1647.16,-29.46 1649.37,-28.81 1651.57,-28.09"/>
<polygon fill="#63b8ff" stroke="#63b8ff" points="1652.84,-31.35 1660.98,-24.58 1650.39,-24.79 1652.84,-31.35"/>
</a>
</g>
</g>
<!-- Node17 -->
<g id="Node000017" class="node">
<title>Node17</title>
<g id="a_Node000017"><a xlink:title=" ">
<polygon fill="#e0e0e0" stroke="#999999" points="1808,-24.5 1722,-24.5 1722,-5.5 1808,-5.5 1808,-24.5"/>
<text text-anchor="middle" x="1765" y="-12.5" font-family="Helvetica,sans-Serif" font-size="10.00">unordered_set</text>
</a>
</g>
</g>
<!-- Node1&#45;&gt;Node17 -->
<g id="edge16_Node000001_Node000017" class="edge">
<title>Node1&#45;&gt;Node17</title>
<g id="a_edge16_Node000001_Node000017"><a xlink:title=" ">
<path fill="none" stroke="#63b8ff" d="M1161.69,-82.51C1290.05,-77.4 1519.59,-64 1713,-30 1717.52,-29.2 1722.23,-28.2 1726.88,-27.09"/>
<polygon fill="#63b8ff" stroke="#63b8ff" points="1728.04,-30.41 1736.87,-24.55 1726.31,-23.62 1728.04,-30.41"/>
</a>
</g>
</g>
</g>
</svg>
