<?xml version="1.0" encoding="UTF-8" standalone="no"?>
<!DOCTYPE svg PUBLIC "-//W3C//DTD SVG 1.1//EN"
 "http://www.w3.org/Graphics/SVG/1.1/DTD/svg11.dtd">
<!-- Generated by graphviz version 2.43.0 (0)
 -->
<!-- Title: /home/runner/work/ground_segmentation/ground_segmentation/include/ground_detection.hpp Pages: 1 -->
<svg width="1362pt" height="170pt"
 viewBox="0.00 0.00 1361.50 170.00" xmlns="http://www.w3.org/2000/svg" xmlns:xlink="http://www.w3.org/1999/xlink">
<g id="graph0" class="graph" transform="scale(1 1) rotate(0) translate(4 166)">
<title>/home/runner/work/ground_segmentation/ground_segmentation/include/ground_detection.hpp</title>
<!-- Node1 -->
<g id="Node000001" class="node">
<title>Node1</title>
<g id="a_Node000001"><a xlink:title=" ">
<polygon fill="#999999" stroke="#666666" points="1097.5,-162 898.5,-162 898.5,-121 1097.5,-121 1097.5,-162"/>
<text text-anchor="start" x="906.5" y="-150" font-family="Helvetica,sans-Serif" font-size="10.00">/home/runner/work/ground</text>
<text text-anchor="start" x="906.5" y="-139" font-family="Helvetica,sans-Serif" font-size="10.00">_segmentation/ground_segmentation</text>
<text text-anchor="middle" x="998" y="-128" font-family="Helvetica,sans-Serif" font-size="10.00">/include/ground_detection.hpp</text>
</a>
</g>
</g>
<!-- Node2 -->
<g id="Node000002" class="node">
<title>Node2</title>
<g id="a_Node000002"><a xlink:href="ground__detection__types_8hpp.html" target="_top" xlink:title="Core data structures and configuration types for grid&#45;based ground segmentation.">
<polygon fill="white" stroke="#666666" points="936.5,-85 781.5,-85 781.5,-66 936.5,-66 936.5,-85"/>
<text text-anchor="middle" x="859" y="-73" font-family="Helvetica,sans-Serif" font-size="10.00">ground_detection_types.hpp</text>
</a>
</g>
</g>
<!-- Node1&#45;&gt;Node2 -->
<g id="edge1_Node000001_Node000002" class="edge">
<title>Node1&#45;&gt;Node2</title>
<g id="a_edge1_Node000001_Node000002"><a xlink:title=" ">
<path fill="none" stroke="#63b8ff" d="M955.54,-120.95C933.27,-110.7 906.62,-98.43 886.97,-89.38"/>
<polygon fill="#63b8ff" stroke="#63b8ff" points="888.21,-86.1 877.66,-85.09 885.28,-92.45 888.21,-86.1"/>
</a>
</g>
</g>
<!-- Node15 -->
<g id="Node000015" class="node">
<title>Node15</title>
<g id="a_Node000015"><a xlink:title=" ">
<polygon fill="#e0e0e0" stroke="#999999" points="1041,-85 955,-85 955,-66 1041,-66 1041,-85"/>
<text text-anchor="middle" x="998" y="-73" font-family="Helvetica,sans-Serif" font-size="10.00">nanoflann.hpp</text>
</a>
</g>
</g>
<!-- Node1&#45;&gt;Node15 -->
<g id="edge14_Node000001_Node000015" class="edge">
<title>Node1&#45;&gt;Node15</title>
<g id="a_edge14_Node000001_Node000015"><a xlink:title=" ">
<path fill="none" stroke="#63b8ff" d="M998,-120.95C998,-112.85 998,-103.5 998,-95.47"/>
<polygon fill="#63b8ff" stroke="#63b8ff" points="1001.5,-95.26 998,-85.26 994.5,-95.26 1001.5,-95.26"/>
</a>
</g>
</g>
<!-- Node16 -->
<g id="Node000016" class="node">
<title>Node16</title>
<g id="a_Node000016"><a xlink:title=" ">
<polygon fill="#e0e0e0" stroke="#999999" points="1152.5,-85 1059.5,-85 1059.5,-66 1152.5,-66 1152.5,-85"/>
<text text-anchor="middle" x="1106" y="-73" font-family="Helvetica,sans-Serif" font-size="10.00">unordered_map</text>
</a>
</g>
</g>
<!-- Node1&#45;&gt;Node16 -->
<g id="edge15_Node000001_Node000016" class="edge">
<title>Node1&#45;&gt;Node16</title>
<g id="a_edge15_Node000001_Node000016"><a xlink:title=" ">
<path fill="none" stroke="#63b8ff" d="M1030.99,-120.95C1047.74,-111.03 1067.68,-99.21 1082.79,-90.25"/>
<polygon fill="#63b8ff" stroke="#63b8ff" points="1084.68,-93.2 1091.5,-85.09 1081.11,-87.18 1084.68,-93.2"/>
</a>
</g>
</g>
<!-- Node3 -->
<g id="Node000003" class="node">
<title>Node3</title>
<g id="a_Node000003"><a xlink:title=" ">
<polygon fill="#e0e0e0" stroke="#999999" points="142,-24.5 0,-24.5 0,-5.5 142,-5.5 142,-24.5"/>
<text text-anchor="middle" x="71" y="-12.5" font-family="Helvetica,sans-Serif" font-size="10.00">pcl/common/transforms.h</text>
</a>
</g>
</g>
<!-- Node2&#45;&gt;Node3 -->
<g id="edge2_Node000002_Node000003" class="edge">
<title>Node2&#45;&gt;Node3</title>
<g id="a_edge2_Node000002_Node000003"><a xlink:title=" ">
<path fill="none" stroke="#63b8ff" d="M781.48,-72.43C650.97,-68.32 379.25,-57.06 151,-30 142.35,-28.97 133.22,-27.63 124.34,-26.18"/>
<polygon fill="#63b8ff" stroke="#63b8ff" points="124.91,-22.72 114.47,-24.51 123.74,-29.63 124.91,-22.72"/>
</a>
</g>
</g>
<!-- Node4 -->
<g id="Node000004" class="node">
<title>Node4</title>
<g id="a_Node000004"><a xlink:title=" ">
<polygon fill="#e0e0e0" stroke="#999999" points="288,-24.5 160,-24.5 160,-5.5 288,-5.5 288,-24.5"/>
<text text-anchor="middle" x="224" y="-12.5" font-family="Helvetica,sans-Serif" font-size="10.00">pcl/common/centroid.h</text>
</a>
</g>
</g>
<!-- Node2&#45;&gt;Node4 -->
<g id="edge3_Node000002_Node000004" class="edge">
<title>Node2&#45;&gt;Node4</title>
<g id="a_edge3_Node000002_Node000004"><a xlink:title=" ">
<path fill="none" stroke="#63b8ff" d="M781.44,-71.07C672.77,-65.65 469.16,-53.25 297,-30 289.53,-28.99 281.67,-27.71 273.98,-26.34"/>
<polygon fill="#63b8ff" stroke="#63b8ff" points="274.5,-22.88 264.03,-24.5 273.23,-29.76 274.5,-22.88"/>
</a>
</g>
</g>
<!-- Node5 -->
<g id="Node000005" class="node">
<title>Node5</title>
<g id="a_Node000005"><a xlink:title=" ">
<polygon fill="#e0e0e0" stroke="#999999" points="427.5,-30 306.5,-30 306.5,0 427.5,0 427.5,-30"/>
<text text-anchor="start" x="314.5" y="-18" font-family="Helvetica,sans-Serif" font-size="10.00">pcl/segmentation/sac</text>
<text text-anchor="middle" x="367" y="-7" font-family="Helvetica,sans-Serif" font-size="10.00">_segmentation.h</text>
</a>
</g>
</g>
<!-- Node2&#45;&gt;Node5 -->
<g id="edge4_Node000002_Node000005" class="edge">
<title>Node2&#45;&gt;Node5</title>
<g id="a_edge4_Node000002_Node000005"><a xlink:title=" ">
<path fill="none" stroke="#63b8ff" d="M781.14,-68.55C698.3,-61.71 563.23,-49.11 437.7,-30.17"/>
<polygon fill="#63b8ff" stroke="#63b8ff" points="437.94,-26.67 427.52,-28.62 436.88,-33.59 437.94,-26.67"/>
</a>
</g>
</g>
<!-- Node6 -->
<g id="Node000006" class="node">
<title>Node6</title>
<g id="a_Node000006"><a xlink:title=" ">
<polygon fill="#e0e0e0" stroke="#999999" points="544.5,-30 445.5,-30 445.5,0 544.5,0 544.5,-30"/>
<text text-anchor="start" x="453.5" y="-18" font-family="Helvetica,sans-Serif" font-size="10.00">pcl/filters/extract</text>
<text text-anchor="middle" x="495" y="-7" font-family="Helvetica,sans-Serif" font-size="10.00">_indices.h</text>
</a>
</g>
</g>
<!-- Node2&#45;&gt;Node6 -->
<g id="edge5_Node000002_Node000006" class="edge">
<title>Node2&#45;&gt;Node6</title>
<g id="a_edge5_Node000002_Node000006"><a xlink:title=" ">
<path fill="none" stroke="#63b8ff" d="M787.27,-65.97C727.37,-58.42 639.54,-46.32 554.43,-30.18"/>
<polygon fill="#63b8ff" stroke="#63b8ff" points="555.09,-26.74 544.61,-28.29 553.77,-33.61 555.09,-26.74"/>
</a>
</g>
</g>
<!-- Node7 -->
<g id="Node000007" class="node">
<title>Node7</title>
<g id="a_Node000007"><a xlink:title=" ">
<polygon fill="#e0e0e0" stroke="#999999" points="693.5,-24.5 562.5,-24.5 562.5,-5.5 693.5,-5.5 693.5,-24.5"/>
<text text-anchor="middle" x="628" y="-12.5" font-family="Helvetica,sans-Serif" font-size="10.00">pcl/common/common.h</text>
</a>
</g>
</g>
<!-- Node2&#45;&gt;Node7 -->
<g id="edge6_Node000002_Node000007" class="edge">
<title>Node2&#45;&gt;Node7</title>
<g id="a_edge6_Node000002_Node000007"><a xlink:title=" ">
<path fill="none" stroke="#63b8ff" d="M825.41,-65.99C784.69,-55.68 716,-38.28 671.33,-26.97"/>
<polygon fill="#63b8ff" stroke="#63b8ff" points="672.18,-23.58 661.63,-24.52 670.46,-30.36 672.18,-23.58"/>
</a>
</g>
</g>
<!-- Node8 -->
<g id="Node000008" class="node">
<title>Node8</title>
<g id="a_Node000008"><a xlink:title=" ">
<polygon fill="#e0e0e0" stroke="#999999" points="850,-24.5 712,-24.5 712,-5.5 850,-5.5 850,-24.5"/>
<text text-anchor="middle" x="781" y="-12.5" font-family="Helvetica,sans-Serif" font-size="10.00">pcl/kdtree/kdtree_flann.h</text>
</a>
</g>
</g>
<!-- Node2&#45;&gt;Node8 -->
<g id="edge7_Node000002_Node000008" class="edge">
<title>Node2&#45;&gt;Node8</title>
<g id="a_edge7_Node000002_Node000008"><a xlink:title=" ">
<path fill="none" stroke="#63b8ff" d="M847.49,-65.87C835.16,-56.62 815.38,-41.78 800.59,-30.69"/>
<polygon fill="#63b8ff" stroke="#63b8ff" points="802.66,-27.87 792.56,-24.67 798.46,-33.47 802.66,-27.87"/>
</a>
</g>
</g>
<!-- Node9 -->
<g id="Node000009" class="node">
<title>Node9</title>
<g id="a_Node000009"><a xlink:title=" ">
<polygon fill="#e0e0e0" stroke="#999999" points="1006,-24.5 868,-24.5 868,-5.5 1006,-5.5 1006,-24.5"/>
<text text-anchor="middle" x="937" y="-12.5" font-family="Helvetica,sans-Serif" font-size="10.00">pcl/features/normal_3d.h</text>
</a>
</g>
</g>
<!-- Node2&#45;&gt;Node9 -->
<g id="edge8_Node000002_Node000009" class="edge">
<title>Node2&#45;&gt;Node9</title>
<g id="a_edge8_Node000002_Node000009"><a xlink:title=" ">
<path fill="none" stroke="#63b8ff" d="M870.51,-65.87C882.84,-56.62 902.62,-41.78 917.41,-30.69"/>
<polygon fill="#63b8ff" stroke="#63b8ff" points="919.54,-33.47 925.44,-24.67 915.34,-27.87 919.54,-33.47"/>
</a>
</g>
</g>
<!-- Node10 -->
<g id="Node000010" class="node">
<title>Node10</title>
<g id="a_Node000010"><a xlink:title=" ">
<polygon fill="#e0e0e0" stroke="#999999" points="1101.5,-24.5 1024.5,-24.5 1024.5,-5.5 1101.5,-5.5 1101.5,-24.5"/>
<text text-anchor="middle" x="1063" y="-12.5" font-family="Helvetica,sans-Serif" font-size="10.00">Eigen/Dense</text>
</a>
</g>
</g>
<!-- Node2&#45;&gt;Node10 -->
<g id="edge9_Node000002_Node000010" class="edge">
<title>Node2&#45;&gt;Node10</title>
<g id="a_edge9_Node000002_Node000010"><a xlink:title=" ">
<path fill="none" stroke="#63b8ff" d="M889.21,-65.94C920.65,-57.02 971.3,-42.61 1015,-30 1017.95,-29.15 1021,-28.27 1024.07,-27.38"/>
<polygon fill="#63b8ff" stroke="#63b8ff" points="1025.19,-30.69 1033.82,-24.54 1023.24,-23.97 1025.19,-30.69"/>
</a>
</g>
</g>
<!-- Node11 -->
<g id="Node000011" class="node">
<title>Node11</title>
<g id="a_Node000011"><a xlink:title=" ">
<polygon fill="#e0e0e0" stroke="#999999" points="1166.5,-24.5 1119.5,-24.5 1119.5,-5.5 1166.5,-5.5 1166.5,-24.5"/>
<text text-anchor="middle" x="1143" y="-12.5" font-family="Helvetica,sans-Serif" font-size="10.00">vector</text>
</a>
</g>
</g>
<!-- Node2&#45;&gt;Node11 -->
<g id="edge10_Node000002_Node000011" class="edge">
<title>Node2&#45;&gt;Node11</title>
<g id="a_edge10_Node000002_Node000011"><a xlink:title=" ">
<path fill="none" stroke="#63b8ff" d="M934.24,-65.97C984.91,-59.08 1052.85,-47.58 1111,-30 1112.64,-29.51 1114.3,-28.95 1115.97,-28.35"/>
<polygon fill="#63b8ff" stroke="#63b8ff" points="1117.35,-31.57 1125.34,-24.62 1114.76,-25.07 1117.35,-31.57"/>
</a>
</g>
</g>
<!-- Node12 -->
<g id="Node000012" class="node">
<title>Node12</title>
<g id="a_Node000012"><a xlink:title=" ">
<polygon fill="#e0e0e0" stroke="#999999" points="1231.5,-24.5 1184.5,-24.5 1184.5,-5.5 1231.5,-5.5 1231.5,-24.5"/>
<text text-anchor="middle" x="1208" y="-12.5" font-family="Helvetica,sans-Serif" font-size="10.00">cmath</text>
</a>
</g>
</g>
<!-- Node2&#45;&gt;Node12 -->
<g id="edge11_Node000002_Node000012" class="edge">
<title>Node2&#45;&gt;Node12</title>
<g id="a_edge11_Node000002_Node000012"><a xlink:title=" ">
<path fill="none" stroke="#63b8ff" d="M936.86,-66.03C1015.82,-57.01 1132.42,-42.34 1176,-30 1177.68,-29.52 1179.4,-28.98 1181.11,-28.38"/>
<polygon fill="#63b8ff" stroke="#63b8ff" points="1182.7,-31.52 1190.71,-24.59 1180.13,-25 1182.7,-31.52"/>
</a>
</g>
</g>
<!-- Node13 -->
<g id="Node000013" class="node">
<title>Node13</title>
<g id="a_Node000013"><a xlink:title=" ">
<polygon fill="#e0e0e0" stroke="#999999" points="1288,-24.5 1250,-24.5 1250,-5.5 1288,-5.5 1288,-24.5"/>
<text text-anchor="middle" x="1269" y="-12.5" font-family="Helvetica,sans-Serif" font-size="10.00">map</text>
</a>
</g>
</g>
<!-- Node2&#45;&gt;Node13 -->
<g id="edge12_Node000002_Node000013" class="edge">
<title>Node2&#45;&gt;Node13</title>
<g id="a_edge12_Node000002_Node000013"><a xlink:title=" ">
<path fill="none" stroke="#63b8ff" d="M936.72,-66.9C1039.94,-56.59 1212.61,-38.47 1241,-30 1242.26,-29.62 1243.53,-29.19 1244.8,-28.72"/>
<polygon fill="#63b8ff" stroke="#63b8ff" points="1246.54,-31.78 1254.28,-24.55 1243.72,-25.38 1246.54,-31.78"/>
</a>
</g>
</g>
<!-- Node14 -->
<g id="Node000014" class="node">
<title>Node14</title>
<g id="a_Node000014"><a xlink:title=" ">
<polygon fill="#e0e0e0" stroke="#999999" points="1353.5,-24.5 1306.5,-24.5 1306.5,-5.5 1353.5,-5.5 1353.5,-24.5"/>
<text text-anchor="middle" x="1330" y="-12.5" font-family="Helvetica,sans-Serif" font-size="10.00">queue</text>
</a>
</g>
</g>
<!-- Node2&#45;&gt;Node14 -->
<g id="edge13_Node000002_Node000014" class="edge">
<title>Node2&#45;&gt;Node14</title>
<g id="a_edge13_Node000002_Node000014"><a xlink:title=" ">
<path fill="none" stroke="#63b8ff" d="M936.91,-66.88C1060.46,-54.76 1288.38,-32.21 1297,-30 1298.94,-29.5 1300.92,-28.91 1302.89,-28.25"/>
<polygon fill="#63b8ff" stroke="#63b8ff" points="1304.44,-31.4 1312.53,-24.56 1301.94,-24.86 1304.44,-31.4"/>
</a>
</g>
</g>
</g>
</svg>
